<?xml version="1.0" encoding="UTF-8" standalone="no"?>
<svg
   id="Layer_1"
   data-name="Layer 1"
   viewBox="0 0 24 24"
   width="512"
   height="512"
   version="1.1"
   sodipodi:docname="export.svg"
   inkscape:version="1.1-alpha (17bc9184, 2021-03-28)"
   xmlns:inkscape="http://www.inkscape.org/namespaces/inkscape"
   xmlns:sodipodi="http://sodipodi.sourceforge.net/DTD/sodipodi-0.dtd"
   xmlns="http://www.w3.org/2000/svg"
   xmlns:svg="http://www.w3.org/2000/svg">
  <defs
     id="defs14" />
  <sodipodi:namedview
     id="namedview12"
     pagecolor="#ffffff"
     bordercolor="#666666"
     borderopacity="1.0"
     objecttolerance="10.0"
     gridtolerance="10.0"
     guidetolerance="10.0"
     inkscape:pageshadow="2"
     inkscape:pageopacity="0.0"
     inkscape:pagecheckerboard="0"
     showgrid="false"
     inkscape:zoom="1.4707031"
     inkscape:cx="129.86985"
     inkscape:cy="264.15936"
     inkscape:window-width="1312"
     inkscape:window-height="1003"
     inkscape:window-x="44"
     inkscape:window-y="25"
     inkscape:window-maximized="0"
     inkscape:current-layer="Layer_1" />
  <path
     d="M18.66,20.9c-.41-.37-1.05-.33-1.41,.09-.57,.65-1.39,1.02-2.25,1.02H5c-1.65,0-3-1.35-3-3V5c0-1.65,1.35-3,3-3h4.51c.16,0,.33,0,.49,.02V7c0,1.65,1.35,3,3,3h5.81c.31,0,.6-.14,.79-.39s.25-.56,.18-.86c-.31-1.22-.94-2.33-1.83-3.22l-3.48-3.48c-1.32-1.32-3.08-2.05-4.95-2.05H5C2.24,0,0,2.24,0,5v14c0,2.76,2.24,5,5,5H15c1.43,0,2.8-.62,3.75-1.69,.37-.41,.33-1.05-.09-1.41ZM12,2.66c.38,.22,.73,.49,1.05,.81l3.48,3.48c.31,.31,.58,.67,.8,1.05h-4.34c-.55,0-1-.45-1-1V2.66Zm11.13,15.43l-1.61,1.61c-.2,.2-.45,.29-.71,.29s-.51-.1-.71-.29c-.39-.39-.39-1.02,0-1.41l1.29-1.29h-7.4c-.55,0-1-.45-1-1s.45-1,1-1h7.4l-1.29-1.29c-.39-.39-.39-1.02,0-1.41s1.02-.39,1.41,0l1.61,1.61c1.15,1.15,1.15,3.03,0,4.19Z"
     id="path9"
     style="fill:#ffffff" />
</svg>
