<svg width="28" height="28" xmlns="http://www.w3.org/2000/svg">

 <g>
  <title>background</title>
  <rect fill="none" id="canvas_background" height="602" width="802" y="-1" x="-1"/>
 </g>
 <g>
  <title>Layer 1</title>
  <path stroke="null" id="svg_1" fill="#ffffff" d="m3,8.90576c0,-1.03554 0.44772,-1.87499 1,-1.87499l20,0c0.5523,0 1,0.83945 1,1.87499c0,1.03554 -0.4477,1.87499 -1,1.87499l-20,0c-0.55228,0 -1,-0.83945 -1,-1.87499z"/>
  <path stroke="null" id="svg_4" fill="#ffffff" d="m3,13.90576c0,-1.03554 0.44772,-1.87499 1,-1.87499l20,0c0.5523,0 1,0.83945 1,1.87499c0,1.03554 -0.4477,1.87499 -1,1.87499l-20,0c-0.55228,0 -1,-0.83945 -1,-1.87499z"/>
  <path stroke="null" id="svg_5" fill="#ffffff" d="m3.0625,19.13268c0,-1.03554 0.44772,-1.87499 1,-1.87499l20,0c0.5523,0 1,0.83945 1,1.87499c0,1.03554 -0.4477,1.87498 -1,1.87498l-20,0c-0.55228,0 -1,-0.83945 -1,-1.87498z"/>
 </g>
</svg>